<?xml version="1.0" encoding="UTF-8" standalone="no"?>
<!-- Created with Inkscape (http://www.inkscape.org/) -->

<svg
   xmlns:dc="http://purl.org/dc/elements/1.1/"
   xmlns:cc="http://creativecommons.org/ns#"
   xmlns:rdf="http://www.w3.org/1999/02/22-rdf-syntax-ns#"
   xmlns:svg="http://www.w3.org/2000/svg"
   xmlns="http://www.w3.org/2000/svg"
   xmlns:sodipodi="http://sodipodi.sourceforge.net/DTD/sodipodi-0.dtd"
   xmlns:inkscape="http://www.inkscape.org/namespaces/inkscape"
   width="120mm"
   height="120mm"
   viewBox="0 0 425.19685039 425.19685039"
   id="svg2816"
   version="1.1"
   inkscape:version="0.91 r13725"
   sodipodi:docname="icon.svg">
  <defs
     id="defs2818">
    <clipPath
       id="clipPath8447"
       clipPathUnits="userSpaceOnUse">
      <path
         inkscape:connector-curvature="0"
         id="path8449"
         d="m 0,440.426 600,0 L 600,0 0,0 0,440.426 Z" />
    </clipPath>
  </defs>
  <sodipodi:namedview
     pagecolor="#919191"
     bordercolor="#666666"
     borderopacity="1.0"
     inkscape:pageopacity="0"
     inkscape:pageshadow="2"
     inkscape:zoom="0.35355339"
     inkscape:cx="-416.9631"
     inkscape:cy="440.77183"
     inkscape:document-units="mm"
     inkscape:current-layer="Template"
     id="namedview2820"
     showgrid="false"
     units="mm"
     showguides="true"
     inkscape:guide-bbox="true"
     inkscape:snap-global="true"
     inkscape:snap-bbox="true"
     inkscape:snap-bbox-midpoints="true"
     inkscape:window-width="1469"
     inkscape:window-height="956"
     inkscape:window-maximized="0"
     inkscape:bbox-paths="true"
     inkscape:bbox-nodes="true"
     inkscape:snap-bbox-edge-midpoints="true"
     inkscape:snap-grids="true"
     inkscape:window-x="913"
     inkscape:window-y="472">
    <sodipodi:guide
       orientation="1,0"
       position="212.59843,0"
       id="guide3337" />
    <inkscape:grid
       type="xygrid"
       id="grid3351"
       units="mm"
       spacingx="1mm"
       spacingy="1mm"
       empspacing="5" />
  </sodipodi:namedview>
  <metadata
     id="metadata2822">
    <rdf:RDF>
      <cc:Work
         rdf:about="">
        <dc:format>image/svg+xml</dc:format>
        <dc:type
           rdf:resource="http://purl.org/dc/dcmitype/StillImage" />
        <dc:title />
      </cc:Work>
    </rdf:RDF>
  </metadata>
  <g
     inkscape:groupmode="layer"
     id="Template"
     inkscape:label="Layer 1"
     style="fill:none;stroke:#000000;stroke-width:0.35433071px">
    <path
       style="fill:#000000;fill-opacity:1;stroke:none;stroke-width:0.40064034px"
       d="m 208.86644,37.761902 c -8.50444,0.06418 -16.89207,0.694935 -24.99601,1.908468 -20.0763,3.006331 -43.94536,10.844058 -62.03269,20.368574 l -4.31761,2.272813 -5.98317,-1.546603 c -9.02975,-2.333528 -19.740946,-3.62094 -33.455219,-4.022658 -24.035955,-0.70402 -45.672856,2.67945 -59.402967,9.289537 l -5.839421,2.810653 -1.893597,6.642461 c -1.0423472,3.65309 -2.3699259,9.18098 -2.9494544,12.28609 -1.5018197,8.0445 -2.0152775,24.137493 -1.0484188,32.877723 1.6266709,14.70492 6.6244042,31.69125 12.8561452,43.69155 l 3.140299,6.04762 -2.131538,6.68213 c -5.904436,18.48432 -7.924127,31.27674 -7.916429,50.18283 0,16.14799 1.261636,25.14413 5.48499,39.34172 12.580821,42.29066 48.885551,77.1578 99.51553,95.57467 5.69538,2.07171 6.55302,2.63805 11.31945,7.46037 6.53691,6.61354 14.11513,12.0741 22.60917,16.29388 9.5991,4.76867 15.96182,6.61474 29.22436,8.47658 19.89596,2.79293 35.06861,3.21572 52.92657,1.47472 9.81071,-0.95652 21.93884,-3.02524 27.07548,-4.6175 12.06863,-3.74111 24.22564,-11.17746 34.31278,-20.98821 6.89071,-6.70187 7.37017,-7.02966 14.01363,-9.58943 46.60488,-17.95753 79.73334,-49.45426 93.85704,-89.23459 5.93195,-16.70733 8.50472,-36.67362 7.04151,-54.64419 -0.99149,-12.17342 -3.47522,-25.46467 -6.6623,-35.63384 -1.32691,-4.23384 -2.41407,-8.00921 -2.41407,-8.38735 0,-0.37821 1.8455,-4.33995 4.10196,-8.80622 14.33489,-28.37507 17.36009,-61.36071 8.31299,-90.654783 l -1.4896,-4.823221 -4.60263,-2.238115 C 386.28846,55.930086 342.52642,53.456747 312.87058,60.908909 l -6.4318,1.616002 -11.85235,-5.594047 c -6.51878,-3.076418 -14.89692,-6.676811 -18.62119,-8.003178 -19.94666,-7.103789 -41.98963,-10.913791 -63.44794,-11.158349 -1.21922,-0.01389 -2.43596,-0.0166 -3.65086,-0.0075 z m -92.0279,81.226448 c 0.88098,0 31.94198,12.65264 32.58278,13.27252 1.06381,1.0289 -1.49651,6.3571 -4.48614,9.33664 -1.52348,1.51824 -4.05383,3.29286 -5.62379,3.94334 -15.34741,6.35911 -30.96097,-8.53085 -24.40363,-23.27342 0.80199,-1.80296 1.67143,-3.27908 1.93078,-3.27908 z m 180.87332,0.66919 c 0.10161,0.009 0.17442,0.0319 0.21812,0.0669 1.23039,0.98757 3.00398,6.82809 3.00398,9.89429 0,6.23341 -4.38625,12.71825 -10.48914,15.50322 -7.34851,3.35329 -14.09684,2.48701 -20.36611,-2.61485 -2.29292,-1.86604 -5.53951,-7.37441 -5.53951,-9.38125 0.005,-1.63318 30.02492,-13.73421 33.17266,-13.46834 z M 210.8567,150.4409 c 14.09432,-0.0287 28.19895,2.59173 35.90648,8.03789 10.41569,7.35959 7.05528,21.54953 -7.98088,33.70803 -5.4133,4.37714 -15.12521,9.31946 -21.26084,10.81879 -7.6074,1.85895 -13.28031,0.95921 -22.69096,-3.6013 -14.17061,-6.8672 -24.77926,-18.6014 -25.61314,-28.32715 -0.453,-5.28256 0.27286,-7.77486 3.08825,-10.57836 6.61599,-6.58855 22.5775,-10.02535 38.55109,-10.0579 z m -0.45607,88.76863 c 8.66018,0 21.48739,3.77952 31.56412,9.30191 15.47041,8.47825 29.98812,22.50975 35.21001,34.02529 3.61694,7.9761 4.10333,17.02959 1.24669,23.26102 -5.12224,11.17386 -24.55486,19.19009 -52.68615,21.73177 -17.77503,1.60598 -39.99619,-0.16199 -55.15723,-4.387 -16.1327,-4.49578 -25.89237,-11.136 -28.20321,-19.18632 -4.44912,-15.49962 8.24754,-36.55723 30.85275,-51.1668 12.51663,-8.08929 27.54762,-13.57987 37.17302,-13.57987 z"
       id="path4222"
       inkscape:connector-curvature="0" />
  </g>
</svg>
